<svg width="30" height="18" viewBox="0 0 30 18" fill="none" xmlns="http://www.w3.org/2000/svg">
<path d="M29.2171 8.55692C25.7623 4.57589 20.9881 0 14.6429 0C12.0804 0 9.7314 0.724517 7.25279 2.27269C5.16313 3.58445 3.02009 5.43006 0.0762649 8.4654L0 8.54167L0.510974 9.06789C4.71317 13.3692 8.34338 17.0833 14.6429 17.0833C17.4265 17.0833 20.1263 16.1758 22.8947 14.3073C25.2513 12.7134 27.2571 10.6923 28.8663 9.06027L29.2857 8.64081L29.2171 8.55692ZM14.6429 14.6429C11.2796 14.6429 8.54167 11.9049 8.54167 8.54167C8.54167 5.17838 11.2796 2.44048 14.6429 2.44048C18.0061 2.44048 20.744 5.17838 20.744 8.54167C20.744 11.9049 18.0061 14.6429 14.6429 14.6429Z" fill="#8E8E8E"/>
<path d="M14.2158 6.31476C14.2158 5.78853 14.3683 5.29281 14.6353 4.88098C12.6142 4.88098 10.9822 6.5283 10.9822 8.55695C10.9822 10.5856 12.6219 12.2253 14.6353 12.2253C16.6487 12.2253 18.296 10.5856 18.296 8.55695C17.8841 8.82388 17.3884 8.97641 16.8622 8.97641C15.4055 8.96878 14.2158 7.77905 14.2158 6.31476Z" fill="#8E8E8E"/>
</svg>
